<svg width="12" height="12" viewBox="0 0 12 12" fill="none" xmlns="http://www.w3.org/2000/svg">
<path d="M2.27325 10.5849C2.27325 10.7812 2.43237 10.9403 2.62866 10.9403H9.47012C9.66641 10.9403 9.82553 10.7812 9.82553 10.5849L9.92313 8.97211H2.16943L2.27325 10.5849Z" fill="white"/>
<path d="M10.3481 4.42129L10.5606 4.2667L9.70467 7.76117H2.37224L1.44786 4.19159L1.64108 4.33563L3.96158 6.06543L4.43384 6.41747L4.7045 5.89429L5.89194 3.59897L5.97543 3.43758L6.06964 3.60599L7.35623 5.90616L7.63122 6.3978L8.08675 6.06641L10.3481 4.42129ZM10.6609 3.85708L10.3621 3.62322C10.1951 3.49255 10.09 3.29181 10.09 3.06766C10.09 2.67931 10.4066 2.36264 10.795 2.36264C11.1833 2.36264 11.5 2.67933 11.5 3.06766C11.5 3.39695 11.2715 3.67646 10.9631 3.75224L10.6689 3.82454L10.6609 3.85708ZM1.63434 3.53899L1.33809 3.76773L1.32997 3.73637L1.03893 3.66574C0.729496 3.59065 0.5 3.31061 0.5 2.98068C0.5 2.59236 0.816645 2.27567 1.20511 2.27567C1.59346 2.27567 1.91013 2.59233 1.91013 2.98068C1.91013 3.20636 1.80334 3.4085 1.63434 3.53899ZM6.28274 2.91453L5.97463 3.0683L5.66518 2.91894C5.42706 2.80401 5.26477 2.56109 5.26477 2.28314C5.26477 1.89479 5.58144 1.57812 5.96979 1.57812C6.35813 1.57812 6.6748 1.89479 6.6748 2.28314C6.6748 2.55755 6.51644 2.7979 6.28274 2.91453Z" fill="white" stroke="white"/>
</svg>
