<svg width="16" height="16" viewBox="0 0 16 16" fill="none" xmlns="http://www.w3.org/2000/svg">
<path d="M11.365 0H4.6331C3.98883 0 3.46875 0.522411 3.46875 1.16551V14.8357C3.46875 15.4782 3.98883 16 4.6331 16H11.365C12.0081 16 12.5293 15.4782 12.5293 14.8357V1.16551C12.5293 0.522411 12.0081 0 11.365 0ZM6.33793 0.70782H9.6613C9.74526 0.70782 9.81348 0.833175 9.81348 0.988266C9.81348 1.14336 9.74526 1.2693 9.6613 1.2693H6.33793C6.25339 1.2693 6.18634 1.14336 6.18634 0.988266C6.18634 0.833175 6.25339 0.70782 6.33793 0.70782ZM7.99962 14.8496C7.58973 14.8496 7.25623 14.5161 7.25623 14.1057C7.25623 13.6952 7.58973 13.3629 7.99962 13.3629C8.40833 13.3629 8.74184 13.6952 8.74184 14.1057C8.74184 14.5161 8.40833 14.8496 7.99962 14.8496ZM11.6571 12.3023H4.34157V1.96662H11.6571V12.3023Z" fill="#1F2D51"/>
</svg>
