<svg width="16" height="16" viewBox="0 0 16 16" fill="none" xmlns="http://www.w3.org/2000/svg">
<g clip-path="url(#clip0)">
<path d="M13.7866 11.1359C12.82 10.3092 11.8391 9.80848 10.8844 10.6339L10.3144 11.1328C9.89727 11.495 9.12178 13.1871 6.12345 9.73793C3.12576 6.29317 4.90964 5.75682 5.32736 5.39779L5.90055 4.89828C6.85024 4.07096 6.49184 3.02948 5.80689 1.9574L5.39354 1.30804C4.70546 0.238455 3.9562 -0.463984 3.004 0.362085L2.4895 0.811646C2.06866 1.11822 0.892312 2.11475 0.606966 4.0079C0.263551 6.27943 1.34687 8.88064 3.82882 11.7347C6.30765 14.5901 8.73465 16.0243 11.0337 15.9993C12.9443 15.9787 14.0982 14.9535 14.4591 14.5807L14.9754 14.1305C15.9251 13.3051 15.3351 12.4646 14.3679 11.6361L13.7866 11.1359Z" fill="#1F2D51"/>
</g>
<defs>
<clipPath id="clip0">
<rect width="16" height="16" fill="white"/>
</clipPath>
</defs>
</svg>
