<svg width="8" height="8" viewBox="0 0 8 8" fill="none" xmlns="http://www.w3.org/2000/svg">
<path d="M5.60609 1.83378C4.88357 0.859179 4.1507 0.0706881 4.14333 0.062847C4.10596 0.0227727 4.05366 0 3.99889 0C3.9441 0 3.89178 0.0227529 3.85443 0.062847C3.84711 0.0706881 3.11421 0.859179 2.39169 1.83378C1.40472 3.16505 0.904297 4.19847 0.904297 4.90529C0.904297 6.61168 2.29252 8 3.99889 8C5.70528 8 7.0935 6.61172 7.0935 4.90529C7.0935 4.19847 6.59306 3.16506 5.60609 1.83378ZM4.30795 6.99854C4.14574 7.03687 3.97851 7.05633 3.81098 7.05633C2.62013 7.05633 1.65129 6.08745 1.65129 4.89658C1.65129 4.73241 1.70183 4.43494 1.94262 3.95024C1.96681 3.90151 2.02253 3.87734 2.07469 3.8928C2.12681 3.90831 2.16021 3.95911 2.15383 4.0131C2.1483 4.05974 2.14552 4.10364 2.14552 4.1436C2.14552 5.42007 3.05338 6.5289 4.30424 6.78001C4.35573 6.79038 4.39312 6.83522 4.39401 6.88775C4.39493 6.94035 4.35911 6.98643 4.30795 6.99854Z" fill="#AB387D"/>
</svg>
