<svg width="24" height="24" viewBox="0 0 24 24" fill="none" xmlns="http://www.w3.org/2000/svg">
<g clip-path="url(#clip0)">
<path d="M12.004 5.83801C8.60097 5.83801 5.84597 8.59601 5.84597 11.996C5.84597 15.399 8.60397 18.154 12.004 18.154C15.407 18.154 18.162 15.396 18.162 11.996C18.162 8.59301 15.404 5.83801 12.004 5.83801ZM12.004 15.993C9.79497 15.993 8.00697 14.204 8.00697 11.996C8.00697 9.78801 9.79597 7.99901 12.004 7.99901C14.212 7.99901 16.001 9.78801 16.001 11.996C16.002 14.204 14.213 15.993 12.004 15.993Z" fill="#1F2D51"/>
<path d="M16.9479 0.0762412C14.7399 -0.0267588 9.27088 -0.0217588 7.06088 0.0762412C5.11888 0.167241 3.40588 0.636241 2.02488 2.01724C-0.283124 4.32524 0.0118763 7.43524 0.0118763 11.9962C0.0118763 16.6642 -0.248124 19.7022 2.02488 21.9752C4.34188 24.2912 7.49688 23.9882 12.0039 23.9882C16.6279 23.9882 18.2239 23.9912 19.8589 23.3582C22.0819 22.4952 23.7599 20.5082 23.9239 16.9392C24.0279 14.7302 24.0219 9.26224 23.9239 7.05224C23.7259 2.83924 21.4649 0.284241 16.9479 0.0762412ZM20.4429 20.4482C18.9299 21.9612 16.8309 21.8262 11.9749 21.8262C6.97488 21.8262 4.96988 21.9002 3.50688 20.4332C1.82188 18.7562 2.12688 16.0632 2.12688 11.9802C2.12688 6.45524 1.55988 2.47624 7.10488 2.19224C8.37888 2.14724 8.75388 2.13224 11.9609 2.13224L12.0059 2.16224C17.3349 2.16224 21.5159 1.60424 21.7669 7.14824C21.8239 8.41324 21.8369 8.79324 21.8369 11.9952C21.8359 16.9372 21.9299 18.9542 20.4429 20.4482Z" fill="#1F2D51"/>
<path d="M18.406 7.034C19.2008 7.034 19.845 6.38974 19.845 5.595C19.845 4.80027 19.2008 4.15601 18.406 4.15601C17.6113 4.15601 16.967 4.80027 16.967 5.595C16.967 6.38974 17.6113 7.034 18.406 7.034Z" fill="#1F2D51"/>
</g>
<defs>
<clipPath id="clip0">
<rect width="24" height="24" fill="white"/>
</clipPath>
</defs>
</svg>
