<svg width="20" height="24" viewBox="0 0 20 24" fill="none" xmlns="http://www.w3.org/2000/svg">
<path d="M10.3262 0C3.74842 0 0.250259 4.21519 0.250259 8.8114C0.250259 10.943 1.44131 13.6011 3.3479 14.4441C3.63741 14.5747 3.79492 14.5192 3.85942 14.2506C3.91642 14.0466 4.16694 13.0641 4.28844 12.6006C4.32594 12.4521 4.30644 12.3231 4.18644 12.1835C3.55341 11.4515 3.05089 10.118 3.05089 8.8669C3.05089 5.66125 5.5995 2.54861 9.93619 2.54861C13.6864 2.54861 16.31 4.98472 16.31 8.46938C16.31 12.4071 14.2264 15.1312 11.5188 15.1312C10.0202 15.1312 8.90415 13.9551 9.25816 12.5001C9.68568 10.7675 10.5242 8.9044 10.5242 7.65484C10.5242 6.53429 9.89119 5.60725 8.59813 5.60725C7.07257 5.60725 5.83501 7.11782 5.83501 9.14591C5.83501 10.4345 6.29103 11.3045 6.29103 11.3045C6.29103 11.3045 4.78196 17.4008 4.50145 18.5393C4.02743 20.4669 4.56595 23.5886 4.61246 23.8571C4.64096 24.0056 4.80746 24.0521 4.90047 23.9306C5.04897 23.7356 6.87306 21.1329 7.38458 19.2519C7.57059 18.5663 8.33412 15.7867 8.33412 15.7867C8.83665 16.6943 10.2872 17.4548 11.8323 17.4548C16.4285 17.4548 19.7496 13.4151 19.7496 8.40188C19.7331 3.59566 15.6199 0 10.3262 0Z" fill="#1F2D51"/>
</svg>
