<svg width="24" height="14" viewBox="0 0 24 14" fill="none" xmlns="http://www.w3.org/2000/svg">
<path d="M23.786 12.3671C23.7215 12.2591 23.3225 11.392 21.4024 9.60991C19.3922 7.74377 19.6622 8.04679 22.0834 4.82005C23.558 2.8549 24.1476 1.65481 23.9631 1.14178C23.7875 0.65274 22.703 0.78175 22.703 0.78175L19.0967 0.802751C19.0967 0.802751 18.8297 0.766749 18.6302 0.885258C18.4367 1.00227 18.3121 1.27229 18.3121 1.27229C18.3121 1.27229 17.7406 2.7934 16.9785 4.0865C15.3719 6.8152 14.7284 6.95921 14.4659 6.7897C13.8553 6.39517 14.0083 5.20258 14.0083 4.35652C14.0083 1.71182 14.4089 0.609237 13.2268 0.324216C12.8337 0.229709 12.5457 0.166704 11.5421 0.156203C10.2551 0.142702 9.16448 0.160704 8.54793 0.462226C8.1369 0.663241 7.82038 1.11177 8.01389 1.13728C8.25241 1.16878 8.79245 1.28279 9.07897 1.67282C9.4495 2.17535 9.436 3.30644 9.436 3.30644C9.436 3.30644 9.64901 6.41917 8.93946 6.8062C8.45192 7.07172 7.78438 6.53018 6.35177 4.05349C5.61822 2.7859 5.06318 1.3833 5.06318 1.3833C5.06318 1.3833 4.95667 1.12228 4.76616 0.982765C4.53514 0.813252 4.21111 0.759248 4.21111 0.759248L0.781864 0.78025C0.781864 0.78025 0.267327 0.795251 0.0783129 1.01877C-0.0896993 1.21828 0.064812 1.62931 0.064812 1.62931C0.064812 1.62931 2.75001 7.91028 5.78923 11.077C8.57793 13.9797 11.7432 13.7892 11.7432 13.7892H13.1773C13.1773 13.7892 13.6108 13.7412 13.8313 13.5027C14.0353 13.2837 14.0278 12.8726 14.0278 12.8726C14.0278 12.8726 13.9993 10.948 14.8934 10.6645C15.774 10.3855 16.905 12.5246 18.1036 13.3482C19.0097 13.9707 19.6982 13.8342 19.6982 13.8342L22.904 13.7892C22.904 13.7892 24.5811 13.6857 23.786 12.3671Z" fill="#1F2D51"/>
</svg>
