<svg width="55" height="55" viewBox="0 0 55 55" fill="none" xmlns="http://www.w3.org/2000/svg">
<path d="M30 35H13V50L15 52.5H26L29.5 50L30 35Z" fill="#C6EAFF"/>
<path d="M43.8282 12.8906C43.8264 11.2957 43.1921 9.76668 42.0643 8.63892C40.9366 7.51115 39.4075 6.87679 37.8126 6.875V2.57813C37.8126 2.3502 37.7221 2.13162 37.5609 1.97046C37.3997 1.80929 37.1812 1.71875 36.9532 1.71875H31.797C31.5691 1.71875 31.3505 1.80929 31.1893 1.97046C31.0282 2.13162 30.9376 2.3502 30.9376 2.57813V6.875C29.3427 6.87679 27.8137 7.51115 26.6859 8.63892C25.5581 9.76668 24.9238 11.2957 24.922 12.8906V21.4844C24.9214 22.1189 25.1558 22.7312 25.5801 23.2031C25.1558 23.675 24.9214 24.2873 24.922 24.9219V25.7813H12.0314C11.9161 25.7812 11.8019 25.8043 11.6957 25.8493C11.5896 25.8943 11.4935 25.9601 11.4133 26.043C11.3331 26.1259 11.2704 26.224 11.229 26.3316C11.1875 26.4392 11.1681 26.5541 11.172 26.6693L11.9206 49.1276C11.9534 50.2433 12.4209 51.302 13.2232 52.078C14.0256 52.854 15.0994 53.2857 16.2156 53.2813H25.8943C26.4671 53.2821 27.0343 53.1688 27.563 52.9482C28.0876 53.1673 28.6503 53.2805 29.2189 53.2813H39.5314C40.6706 53.28 41.7628 52.8269 42.5683 52.0213C43.3738 51.2158 43.827 50.1236 43.8282 48.9844V45.5469C43.8288 44.9123 43.5944 44.3 43.1702 43.8281C43.5944 43.3562 43.8288 42.7439 43.8282 42.1094V40.3906C43.8288 39.7561 43.5944 39.1438 43.1702 38.6719C43.5944 38.2 43.8288 37.5877 43.8282 36.9531V35.2344C43.8288 34.5998 43.5944 33.9875 43.1702 33.5156C43.5944 33.0437 43.8288 32.4314 43.8282 31.7969V30.0781C43.8288 29.4436 43.5944 28.8313 43.1702 28.3594C43.5944 27.8875 43.8288 27.2752 43.8282 26.6406V24.9219C43.8288 24.2873 43.5944 23.675 43.1702 23.2031C43.5944 22.7312 43.8288 22.1189 43.8282 21.4844V12.8906ZM32.6564 3.4375H36.0939V6.875H32.6564V3.4375ZM30.9376 8.59375H37.8126C38.9518 8.59503 40.044 9.04815 40.8495 9.85369C41.6551 10.6592 42.1082 11.7514 42.1095 12.8906V14.9854C41.3468 15.4229 39.5592 16.3281 37.8126 16.3281C36.7265 16.3281 35.5622 15.746 34.3298 15.1298C32.973 14.4515 31.5702 13.75 30.0782 13.75C28.8734 13.7594 27.6907 14.0743 26.6407 14.6652V12.8906C26.642 11.7514 27.0951 10.6592 27.9007 9.85369C28.7062 9.04815 29.7984 8.59503 30.9376 8.59375ZM29.1897 27.5L28.961 34.375H13.1486L12.9194 27.5H29.1897ZM16.2156 51.5625C15.5459 51.5652 14.9016 51.3062 14.4202 50.8406C13.9388 50.375 13.6584 49.7397 13.6388 49.0703L13.2063 36.0938H28.9033L28.4708 49.0703C28.4512 49.7397 28.1708 50.375 27.6894 50.8406C27.208 51.3062 26.5637 51.5652 25.894 51.5625H16.2156ZM42.1095 48.9844C42.1087 49.6679 41.8368 50.3232 41.3535 50.8065C40.8702 51.2899 40.2149 51.5617 39.5314 51.5625H29.3382C29.8647 50.8573 30.1615 50.0072 30.1886 49.1276L30.336 44.6875H41.2501C41.478 44.6878 41.6964 44.7784 41.8575 44.9395C42.0186 45.1006 42.1092 45.319 42.1095 45.5469V48.9844ZM42.1095 42.1094C42.1092 42.3372 42.0186 42.5557 41.8575 42.7168C41.6964 42.8779 41.478 42.9685 41.2501 42.9688H30.3938L30.5085 39.5313H41.2501C41.478 39.5315 41.6964 39.6221 41.8575 39.7832C42.0186 39.9443 42.1092 40.1628 42.1095 40.3906V42.1094ZM42.1095 36.9531C42.1092 37.181 42.0186 37.3994 41.8575 37.5605C41.6964 37.7216 41.478 37.8122 41.2501 37.8125H30.5657L30.6803 34.375H41.2501C41.478 34.3753 41.6964 34.4659 41.8575 34.627C42.0186 34.7881 42.1092 35.0065 42.1095 35.2344V36.9531ZM42.1095 31.7969C42.1092 32.0247 42.0186 32.2432 41.8575 32.4043C41.6964 32.5654 41.478 32.656 41.2501 32.6563H30.7376L30.8522 29.2188H41.2501C41.478 29.219 41.6964 29.3096 41.8575 29.4707C42.0186 29.6318 42.1092 29.8503 42.1095 30.0781V31.7969ZM42.1095 26.6406C42.1092 26.8685 42.0186 27.0869 41.8575 27.248C41.6964 27.4091 41.478 27.4997 41.2501 27.5H30.9095L30.9372 26.6693C30.941 26.5541 30.9217 26.4393 30.8802 26.3317C30.8388 26.2242 30.7761 26.126 30.696 26.0432C30.6159 25.9603 30.5199 25.8944 30.4137 25.8494C30.3076 25.8044 30.1935 25.7812 30.0782 25.7813H26.6407V24.9219C26.641 24.694 26.7316 24.4756 26.8927 24.3145C27.0538 24.1534 27.2723 24.0628 27.5001 24.0625H41.2501C41.478 24.0628 41.6964 24.1534 41.8575 24.3145C42.0186 24.4756 42.1092 24.694 42.1095 24.9219V26.6406ZM41.2501 22.3438H27.5001C27.2723 22.3435 27.0538 22.2529 26.8927 22.0918C26.7316 21.9307 26.641 21.7122 26.6407 21.4844V16.7181C27.1516 16.3099 28.4062 15.4688 30.0782 15.4688C31.1644 15.4688 32.3286 16.0509 33.5611 16.667C34.9178 17.3454 36.3206 18.0469 37.8126 18.0469C39.4393 18.0469 41.0335 17.4465 42.1095 16.9268V21.4844C42.1092 21.7122 42.0186 21.9307 41.8575 22.0918C41.6964 22.2529 41.478 22.3435 41.2501 22.3438Z" fill="#1F2D51"/>
</svg>
