<svg width="64" height="147" viewBox="0 0 64 147" fill="none" xmlns="http://www.w3.org/2000/svg">
<path d="M63.9731 97.0873C63.9731 93.8314 62.4511 90.9304 60.0629 89.0682C62.4508 87.206 64 84.3051 64 81.0492C64 77.6211 62.2258 74.5862 59.6187 72.7434C62.2435 70.6699 63.8657 67.4623 63.8657 63.8654V42.515L43.3116 15.7518H47.8278V0H16.0379V15.7518H20.8402L0 42.515V63.8659C0 67.4629 1.76103 70.6702 4.38584 72.744C1.77875 74.5867 0.107476 77.6214 0.107476 81.0497C0.107476 84.3057 1.66556 87.2066 4.05342 89.0688C1.66556 90.931 0.134342 93.8319 0.134342 97.0879C0.134342 100.516 1.77417 103.551 4.38127 105.394C1.75645 107.467 0 110.675 0 114.272V132.601C0 138.839 5.21819 144.056 11.4557 144.056H22.9113V143.868C24.8181 145.332 27.2008 146.348 29.7848 146.348H34.367C36.9509 146.348 39.3336 145.332 41.2404 143.868V144.056H52.6961C58.9339 144.056 63.8654 138.838 63.8654 132.601V114.272C63.8654 110.675 62.2476 107.467 59.6227 105.394C62.2301 103.551 63.9731 100.516 63.9731 97.0873ZM20.334 11.4557V4.2958H43.532V11.4557H20.334ZM26.2602 15.7518H37.8913L57.4984 41.2407H6.65308L26.2602 15.7518ZM53.842 91.3595C57.0794 91.3595 59.7131 93.9932 59.7131 97.2305C59.7131 100.468 57.0794 103.102 53.842 103.102H48.1142V107.397H52.6964C56.5655 107.397 59.5699 110.402 59.5699 114.271V132.6C59.5699 136.469 56.5657 139.76 52.6964 139.76H44.6416C45.3062 138.041 45.6797 136.577 45.6797 134.891H41.3839C41.3839 138.76 38.2363 142.051 34.3673 142.051H29.7848C25.916 142.051 22.7681 138.761 22.7681 134.891H18.4723C18.4723 136.578 18.8459 138.042 19.5105 139.76H11.4557C7.5869 139.76 4.2958 136.469 4.2958 132.6V114.271C4.2958 110.402 7.58661 107.397 11.4557 107.397H34.3673V103.102H10.3103C7.07297 103.102 4.43929 100.468 4.43929 97.2305C4.43929 93.9932 7.07297 91.3595 10.3103 91.3595H34.3673V87.0637H10.3103C7.07297 87.0637 4.43929 84.43 4.43929 81.1926C4.43929 77.9553 7.07297 75.3216 10.3103 75.3216H34.3673V71.0258H11.4557C7.5869 71.0258 4.2958 67.7353 4.2958 63.8659V45.5368H59.5699V63.8659C59.5699 67.735 56.5657 71.0258 52.6964 71.0258H48.1142V75.3216H53.842C57.0794 75.3216 59.7131 77.9553 59.7131 81.1926C59.7131 84.43 57.0794 87.0637 53.842 87.0637H48.1142V91.3595H53.842Z" fill="#E1E1E1"/>
</svg>
