<svg width="7" height="16" viewBox="0 0 7 16" fill="none" xmlns="http://www.w3.org/2000/svg">
<path fill-rule="evenodd" clip-rule="evenodd" d="M2 0H5C5.276 0 5.5 0.224 5.5 0.5V1.5C5.5 1.776 5.276 2 5 2H2C1.724 2 1.5 1.776 1.5 1.5V0.5C1.5 0.224 1.724 0 2 0ZM6.239 6.452C6.691 6.71 7 7.192 7 7.75C7 8.309 6.691 8.79 6.238 9.048C6.672 9.157 7 9.532 7 10V15C7 15.552 6.552 16 6 16H1C0.448 16 0 15.552 0 15V10C0 9.533 0.328 9.158 0.762 9.049C0.309 8.79 0 8.309 0 7.75C0 7.192 0.309 6.71 0.761 6.451C0.329 6.341 0 5.965 0 5.5C0 5.342 0.0399998 5.193 0.108 5.063C0.362 4.184 0.93 3.452 1.688 3H5.312C6.069 3.452 6.638 4.184 6.891 5.063C6.96 5.192 7 5.341 7 5.5C7 5.966 6.671 6.342 6.239 6.452Z" fill="#1F2D51"/>
</svg>
