<svg width="12" height="12" viewBox="0 0 12 12" fill="none" xmlns="http://www.w3.org/2000/svg">
<path fill-rule="evenodd" clip-rule="evenodd" d="M9.375 0.865385H2.07692C1.40781 0.865385 0.865385 1.40781 0.865385 2.07692H9.95192V1.44231C9.95192 1.12368 9.69363 0.865385 9.375 0.865385ZM2.07692 0C0.92987 0 0 0.92987 0 2.07692V3.46154V9.92308C0 10.6559 0.594084 11.25 1.32692 11.25H10.6731C11.4059 11.25 12 10.6559 12 9.92308V3.40385C12 2.71974 11.4823 2.15655 10.8173 2.08467V1.44231C10.8173 0.645743 10.1716 0 9.375 0H2.07692ZM9.375 7.78846C9.9326 7.78846 10.3846 7.33644 10.3846 6.77885C10.3846 6.22125 9.9326 5.76923 9.375 5.76923C8.8174 5.76923 8.36539 6.22125 8.36539 6.77885C8.36539 7.33644 8.8174 7.78846 9.375 7.78846Z" fill="#1F2D51"/>
</svg>
